<mxfile host="65bd71144e">
    <diagram id="bVoswQC8T6PlKmy4Bn8u" name="Page-1">
        <mxGraphModel dx="1074" dy="749" grid="1" gridSize="10" guides="1" tooltips="1" connect="1" arrows="1" fold="1" page="1" pageScale="1" pageWidth="827" pageHeight="1169" math="0" shadow="0">
            <root>
                <mxCell id="0"/>
                <mxCell id="1" parent="0"/>
                <mxCell id="603" style="edgeStyle=none;html=1;entryX=0.5;entryY=0;entryDx=0;entryDy=0;" parent="1" source="558" target="571" edge="1">
                    <mxGeometry relative="1" as="geometry"/>
                </mxCell>
                <mxCell id="558" value="Start" style="ellipse;whiteSpace=wrap;html=1;" parent="1" vertex="1">
                    <mxGeometry x="515.5" y="320" width="120" height="60" as="geometry"/>
                </mxCell>
                <mxCell id="559" value="Stop" style="ellipse;whiteSpace=wrap;html=1;" parent="1" vertex="1">
                    <mxGeometry x="652.5" y="740" width="120" height="60" as="geometry"/>
                </mxCell>
                <mxCell id="621" style="edgeStyle=none;html=1;entryX=0;entryY=0.5;entryDx=0;entryDy=0;" parent="1" source="571" target="620" edge="1">
                    <mxGeometry relative="1" as="geometry"/>
                </mxCell>
                <mxCell id="645" style="edgeStyle=none;rounded=0;html=1;entryX=0.5;entryY=0;entryDx=0;entryDy=0;" edge="1" parent="1" source="571" target="641">
                    <mxGeometry relative="1" as="geometry"/>
                </mxCell>
                <mxCell id="571" value="&lt;font style=&quot;font-size: 12px&quot;&gt;if (userInput === 1)&lt;/font&gt;" style="rhombus;whiteSpace=wrap;html=1;fontSize=22;" parent="1" vertex="1">
                    <mxGeometry x="498" y="430" width="155" height="100" as="geometry"/>
                </mxCell>
                <mxCell id="573" value="yes" style="text;html=1;align=center;verticalAlign=middle;resizable=0;points=[];autosize=1;strokeColor=none;fillColor=none;fontSize=12;" parent="1" vertex="1">
                    <mxGeometry x="652.5" y="450" width="30" height="20" as="geometry"/>
                </mxCell>
                <mxCell id="638" style="edgeStyle=none;html=1;entryX=1;entryY=0.5;entryDx=0;entryDy=0;rounded=0;" parent="1" source="620" target="559" edge="1">
                    <mxGeometry relative="1" as="geometry">
                        <Array as="points">
                            <mxPoint x="880" y="480"/>
                            <mxPoint x="880" y="770"/>
                        </Array>
                    </mxGeometry>
                </mxCell>
                <mxCell id="620" value="console.log(&quot;Disk Solution&quot;)" style="shape=parallelogram;perimeter=parallelogramPerimeter;whiteSpace=wrap;html=1;fixedSize=1;" parent="1" vertex="1">
                    <mxGeometry x="700" y="450" width="120" height="60" as="geometry"/>
                </mxCell>
                <mxCell id="647" style="edgeStyle=none;rounded=0;html=1;entryX=0;entryY=0.5;entryDx=0;entryDy=0;" edge="1" parent="1" source="626" target="642">
                    <mxGeometry relative="1" as="geometry"/>
                </mxCell>
                <mxCell id="626" value="console.log(&quot;Disk Solution&quot;)" style="shape=parallelogram;perimeter=parallelogramPerimeter;whiteSpace=wrap;html=1;fixedSize=1;" parent="1" vertex="1">
                    <mxGeometry x="590" y="635" width="120" height="60" as="geometry"/>
                </mxCell>
                <mxCell id="646" style="edgeStyle=none;rounded=0;html=1;entryX=0;entryY=0.5;entryDx=0;entryDy=0;" edge="1" parent="1" source="641" target="626">
                    <mxGeometry relative="1" as="geometry">
                        <Array as="points">
                            <mxPoint x="575" y="665"/>
                        </Array>
                    </mxGeometry>
                </mxCell>
                <mxCell id="641" value="towerOfHanoi(userInput - 1, startPeg, 6 - startPeg - endPeg)" style="whiteSpace=wrap;html=1;" vertex="1" parent="1">
                    <mxGeometry x="514.99" y="555" width="120" height="60" as="geometry"/>
                </mxCell>
                <mxCell id="648" style="edgeStyle=none;rounded=0;html=1;endArrow=none;endFill=0;" edge="1" parent="1">
                    <mxGeometry relative="1" as="geometry">
                        <mxPoint x="880" y="661" as="targetPoint"/>
                        <mxPoint x="850" y="661" as="sourcePoint"/>
                    </mxGeometry>
                </mxCell>
                <mxCell id="642" value="towerOfHanoi(userInput - 1, startPeg, 6 - endPeg, endPeg)" style="whiteSpace=wrap;html=1;" vertex="1" parent="1">
                    <mxGeometry x="730" y="634" width="120" height="60" as="geometry"/>
                </mxCell>
                <mxCell id="649" value="no" style="text;html=1;align=center;verticalAlign=middle;resizable=0;points=[];autosize=1;strokeColor=none;fillColor=none;" vertex="1" parent="1">
                    <mxGeometry x="590" y="530" width="30" height="20" as="geometry"/>
                </mxCell>
            </root>
        </mxGraphModel>
    </diagram>
</mxfile>